# xmcd
#
# Track frame offsets:
#  150
#  9471
#  23250
#  38986
#  53476
#  74286
#  88215
#  105732
#  120059
#  134231
#  163409
#
# Disc length: 2391 seconds
#
# Revision: 0
# Processed by: cddbd v1.5.1PL2 Copyright (c) Steve Scherf et al.
# Submitted via: Collectorz.com_Music_Collector 6.9
#
DISCID=8a09550b
DTITLE=Queen - News Of The World
DYEAR=1977
DGENRE=Rock
TTITLE0=We Will Rock You
TTITLE1=We Are The Champions
TTITLE2=Sheer Heart Attack
TTITLE3=All Dead, All Dead
TTITLE4=Spread Your Wings
TTITLE5=Fight From The Inside
TTITLE6=Get Down, Make Love
TTITLE7=Sleeping On The Sidewalk
TTITLE8=Who Needs You
TTITLE9=It's Late
TTITLE10=My Melancholy Blues
EXTD=
EXTT0=
EXTT1=
EXTT2=
EXTT3=
EXTT4=
EXTT5=
EXTT6=
EXTT7=
EXTT8=
EXTT9=
EXTT10=
PLAYORDER=
